<svg width="226" height="204" viewBox="0 0 226 204" fill="none" xmlns="http://www.w3.org/2000/svg">
<path d="M122.337 118.312C121.308 116.781 119.918 115.526 118.29 114.659C116.662 113.791 114.845 113.337 113 113.337C111.155 113.337 109.338 113.791 107.71 114.659C106.082 115.526 104.692 116.781 103.663 118.312L58.6625 185.813C57.6751 187.523 57.1553 189.463 57.1553 191.438C57.1553 193.412 57.6751 195.352 58.6625 197.063C59.5429 198.82 60.8681 200.315 62.5064 201.401C64.1447 202.487 66.0387 203.124 68 203.25H158C160.035 203.245 162.031 202.687 163.774 201.637C165.518 200.587 166.943 199.084 167.9 197.287C168.803 195.528 169.227 193.562 169.128 191.587C169.029 189.612 168.412 187.698 167.337 186.037L122.337 118.312ZM89.0375 180.75L113 144.75L136.963 180.75H89.0375ZM191.75 0.75H34.25C25.2989 0.75 16.7145 4.30579 10.3851 10.6351C4.05579 16.9645 0.5 25.5489 0.5 34.5V135.75C0.5 144.701 4.05579 153.286 10.3851 159.615C16.7145 165.944 25.2989 169.5 34.25 169.5H43.8125C46.7962 169.5 49.6577 168.315 51.7675 166.205C53.8772 164.095 55.0625 161.234 55.0625 158.25C55.0625 155.266 53.8772 152.405 51.7675 150.295C49.6577 148.185 46.7962 147 43.8125 147H34.25C31.2663 147 28.4048 145.815 26.2951 143.705C24.1853 141.595 23 138.734 23 135.75V34.5C23 31.5163 24.1853 28.6548 26.2951 26.5451C28.4048 24.4353 31.2663 23.25 34.25 23.25H191.75C194.734 23.25 197.595 24.4353 199.705 26.5451C201.815 28.6548 203 31.5163 203 34.5V135.75C203 138.734 201.815 141.595 199.705 143.705C197.595 145.815 194.734 147 191.75 147H182.187C179.204 147 176.342 148.185 174.233 150.295C172.123 152.405 170.937 155.266 170.937 158.25C170.937 161.234 172.123 164.095 174.233 166.205C176.342 168.315 179.204 169.5 182.187 169.5H191.75C200.701 169.5 209.286 165.944 215.615 159.615C221.944 153.286 225.5 144.701 225.5 135.75V34.5C225.5 25.5489 221.944 16.9645 215.615 10.6351C209.286 4.30579 200.701 0.75 191.75 0.75Z" fill="black"/>
</svg>
