<svg width="270" height="270" viewBox="0 0 270 270" fill="none" xmlns="http://www.w3.org/2000/svg">
<path fill-rule="evenodd" clip-rule="evenodd" d="M135 11.25C66.6563 11.25 11.25 66.6563 11.25 135C11.25 203.344 66.6563 258.75 135 258.75C203.344 258.75 258.75 203.344 258.75 135C258.75 66.6563 203.344 11.25 135 11.25ZM146.25 180C146.25 182.984 145.065 185.845 142.955 187.955C140.845 190.065 137.984 191.25 135 191.25C132.016 191.25 129.155 190.065 127.045 187.955C124.935 185.845 123.75 182.984 123.75 180V146.25H90C87.0163 146.25 84.1548 145.065 82.0451 142.955C79.9353 140.845 78.75 137.984 78.75 135C78.75 132.016 79.9353 129.155 82.0451 127.045C84.1548 124.935 87.0163 123.75 90 123.75H123.75V90C123.75 87.0163 124.935 84.1548 127.045 82.0451C129.155 79.9353 132.016 78.75 135 78.75C137.984 78.75 140.845 79.9353 142.955 82.0451C145.065 84.1548 146.25 87.0163 146.25 90V123.75H180C182.984 123.75 185.845 124.935 187.955 127.045C190.065 129.155 191.25 132.016 191.25 135C191.25 137.984 190.065 140.845 187.955 142.955C185.845 145.065 182.984 146.25 180 146.25H146.25V180Z" fill="black"/>
</svg>
