<svg width="270" height="270" viewBox="0 0 270 270" fill="none" xmlns="http://www.w3.org/2000/svg">
<g clip-path="url(#clip0_1314_1856)">
<path d="M263.83 233.982L200.707 170.859C215.061 149.549 222.143 122.924 218.352 94.5527C211.887 46.2954 172.336 7.02416 124.031 0.908554C52.2122 -8.17916 -8.17922 52.2122 0.909019 124.031C7.02621 172.357 46.3028 211.939 94.5653 218.373C122.936 222.164 149.567 215.084 170.872 200.728L233.995 263.851C242.232 272.088 255.59 272.088 263.827 263.851C272.057 255.603 272.057 242.209 263.83 233.982V233.982ZM41.7128 109.687C41.7128 72.4675 71.9928 42.1874 109.213 42.1874C146.433 42.1874 176.713 72.4675 176.713 109.687C176.713 146.907 146.433 177.187 109.213 177.187C71.9928 177.187 41.7128 146.918 41.7128 109.687V109.687Z" fill="black"/>
</g>
<defs>
<clipPath id="clip0_1314_1856">
<rect width="270" height="270" fill="white"/>
</clipPath>
</defs>
</svg>
