<svg width="220" height="254" viewBox="0 0 220 254" fill="none" xmlns="http://www.w3.org/2000/svg">
<path d="M17.1875 16.875C12.712 16.875 8.41975 18.6529 5.25507 21.8176C2.0904 24.9822 0.3125 29.2745 0.3125 33.75V50.625C0.3125 55.1005 2.0904 59.3928 5.25507 62.5574C8.41975 65.7221 12.712 67.5 17.1875 67.5H25.625V219.375C25.625 228.326 29.1808 236.91 35.5101 243.24C41.8395 249.569 50.4239 253.125 59.375 253.125H160.625C169.576 253.125 178.16 249.569 184.49 243.24C190.819 236.91 194.375 228.326 194.375 219.375V67.5H202.812C207.288 67.5 211.58 65.7221 214.745 62.5574C217.91 59.3928 219.688 55.1005 219.688 50.625V33.75C219.688 29.2745 217.91 24.9822 214.745 21.8176C211.58 18.6529 207.288 16.875 202.812 16.875H143.75C143.75 12.3995 141.972 8.10725 138.807 4.94257C135.643 1.7779 131.351 0 126.875 0L93.125 0C88.6495 0 84.3573 1.7779 81.1926 4.94257C78.0279 8.10725 76.25 12.3995 76.25 16.875H17.1875ZM67.8125 84.375C70.0503 84.375 72.1964 85.2639 73.7787 86.8463C75.3611 88.4286 76.25 90.5747 76.25 92.8125V210.938C76.25 213.175 75.3611 215.321 73.7787 216.904C72.1964 218.486 70.0503 219.375 67.8125 219.375C65.5747 219.375 63.4286 218.486 61.8463 216.904C60.2639 215.321 59.375 213.175 59.375 210.938V92.8125C59.375 90.5747 60.2639 88.4286 61.8463 86.8463C63.4286 85.2639 65.5747 84.375 67.8125 84.375V84.375ZM110 84.375C112.238 84.375 114.384 85.2639 115.966 86.8463C117.549 88.4286 118.438 90.5747 118.438 92.8125V210.938C118.438 213.175 117.549 215.321 115.966 216.904C114.384 218.486 112.238 219.375 110 219.375C107.762 219.375 105.616 218.486 104.034 216.904C102.451 215.321 101.562 213.175 101.562 210.938V92.8125C101.562 90.5747 102.451 88.4286 104.034 86.8463C105.616 85.2639 107.762 84.375 110 84.375V84.375ZM160.625 92.8125V210.938C160.625 213.175 159.736 215.321 158.154 216.904C156.571 218.486 154.425 219.375 152.188 219.375C149.95 219.375 147.804 218.486 146.221 216.904C144.639 215.321 143.75 213.175 143.75 210.938V92.8125C143.75 90.5747 144.639 88.4286 146.221 86.8463C147.804 85.2639 149.95 84.375 152.188 84.375C154.425 84.375 156.571 85.2639 158.154 86.8463C159.736 88.4286 160.625 90.5747 160.625 92.8125V92.8125Z" fill="black"/>
</svg>
